# xmcd
#
# Track frame offsets: 
#        150
#        17811
#        33963
#        52967
#        68374
#        83673
#        100025
#        114671
#        137177
#        149565
#        166438
#        187899
#        200926
#        218485
#
# Disc length: 3095 seconds
#
# Revision: 1
# Processed by: cddbd v1.5.2PL0 Copyright (c) Steve Scherf et al.
# Submitted via: ExactAudioCopyFreeDBPlugin 1.0
#
DISCID=bf0c150e
DTITLE=H.P. Lange - A Compilation Of Roots Blues [CD 2)
DYEAR=2008
DGENRE=Blues
TTITLE0=Keep It Clean
TTITLE1=Some Of These Days
TTITLE2=Mellow Peaches
TTITLE3=Poor Black Mattie
TTITLE4=Whiskey, Take Me
TTITLE5=Jumper On The Line
TTITLE6=Crossroads Blues
TTITLE7=France Chance
TTITLE8=Shotnin Bread
TTITLE9=Drop Down Mama
TTITLE10=Change Sometime
TTITLE11=Keep The Skillet Good And Greasy
TTITLE12=God Don't Never Change
TTITLE13=Come On In My Kitchen
EXTD=
EXTT0=
EXTT1=
EXTT2=
EXTT3=
EXTT4=
EXTT5=
EXTT6=
EXTT7=
EXTT8=
EXTT9=
EXTT10=
EXTT11=
EXTT12=
EXTT13=
PLAYORDER=
